# xmcd
#
# Track frame offsets: 
#        150
#        31951
#        53642
#        77115
#        102032
#        125674
#        145165
#        171228
#        203428
#
# Disc length: 2970 seconds
#
# Revision: 3
# Processed by: cddbd v1.5.2PL0 Copyright (c) Steve Scherf et al.
# Submitted via: ExactAudioCopyFreeDBPlugin 1.0
#
DISCID=700b9809
DTITLE=The Isley Brothers - The Real Deal
DYEAR=1982
DGENRE=Rhythm and Blues
TTITLE0=The Real Deal (Parts I and II)
TTITLE1=Are You with Me?
TTITLE2=Stone Cold Lover
TTITLE3=It's Alright with Me
TTITLE4=All in My Lover's Eyes
TTITLE5=I'll Do it All for You
TTITLE6=Under the Influence
TTITLE7=The Real Deal (instrumental)
TTITLE8=It's Alright with Me (instrumental)
EXTD=
EXTT0=
EXTT1=
EXTT2=
EXTT3=
EXTT4=
EXTT5=
EXTT6=
EXTT7=
EXTT8=
PLAYORDER=
